<?xml version="1.0" standalone="no"?>
<!DOCTYPE svg PUBLIC "-//W3C//DTD SVG 20010904//EN"
 "http://www.w3.org/TR/2001/REC-SVG-20010904/DTD/svg10.dtd">
<svg version="1.0" xmlns="http://www.w3.org/2000/svg"
 width="30px" height="26.25px" viewBox="0 0 225.000000 225.000000"
 preserveAspectRatio="xMidYMid meet">

<g transform="translate(0.000000,225.000000) scale(0.100000,-0.100000)"
 stroke="none">
<path d="M1028 2049 c-224 -33 -458 -183 -590 -378 -17 -25 -33 -48 -35 -50
-2 -3 -51 42 -108 99 l-105 105 0 -303 0 -302 302 0 303 0 -129 129 -129 130
34 58 c19 32 69 92 111 135 61 61 96 86 170 122 119 59 190 76 308 78 110 1
186 -13 279 -51 200 -81 362 -269 416 -481 20 -79 23 -234 6 -313 -70 -322
-358 -557 -683 -557 -273 0 -506 143 -631 387 l-42 83 -94 0 -94 0 7 -32 c4
-18 27 -74 51 -125 260 -535 966 -668 1397 -264 206 193 300 426 285 704 -20
370 -260 679 -617 795 -123 40 -274 52 -412 31z"/>
<path d="M1030 1353 l0 -238 212 -125 c116 -69 216 -126 223 -128 10 -3 75 89
75 107 0 4 -83 56 -185 116 l-185 110 0 197 0 198 -70 0 -70 0 0 -237z"/>
</g>
</svg>
