<?xml version="1.0" standalone="no"?>
<!DOCTYPE svg PUBLIC "-//W3C//DTD SVG 20010904//EN"
 "http://www.w3.org/TR/2001/REC-SVG-20010904/DTD/svg10.dtd">
<svg version="1.0" xmlns="http://www.w3.org/2000/svg"
 width="30px" height="26.25px" viewBox="0 0 225.000000 225.000000"
 preserveAspectRatio="xMidYMid meet">

<g transform="translate(0.000000,225.000000) scale(0.100000,-0.100000)"
 stroke="none">
<path d="M1023 2156 c-23 -7 -56 -23 -75 -34 -18 -12 -236 -225 -485 -474
-397 -398 -452 -458 -458 -491 -9 -47 8 -89 48 -123 27 -23 38 -26 85 -22 l53
5 452 451 c392 392 456 452 482 452 26 0 90 -60 482 -452 l452 -451 53 -5 c47
-4 58 -1 86 23 41 34 59 90 43 136 -7 23 -70 93 -191 214 l-180 180 0 215 c0
198 -2 218 -20 248 -21 33 -71 62 -110 62 -39 0 -97 -38 -111 -72 -8 -19 -14
-67 -14 -110 0 -43 -2 -78 -5 -78 -2 0 -70 65 -150 145 -105 104 -159 150
-195 166 -62 28 -181 35 -242 15z"/>
<path d="M707 1272 l-397 -398 0 -290 c0 -317 5 -354 55 -421 15 -19 51 -46
79 -59 49 -23 61 -24 259 -24 l207 0 0 285 0 285 215 0 215 0 0 -285 0 -285
208 0 c204 0 209 0 260 26 29 14 64 41 78 60 49 64 54 103 54 418 l0 290 -397
398 c-263 263 -405 398 -418 398 -13 0 -155 -135 -418 -398z"/>
</g>
</svg>
