<?xml version="1.0" standalone="no"?>
<!DOCTYPE svg PUBLIC "-//W3C//DTD SVG 20010904//EN"
 "http://www.w3.org/TR/2001/REC-SVG-20010904/DTD/svg10.dtd">
<svg version="1.0" xmlns="http://www.w3.org/2000/svg"
 width="30px" height="26.25px" viewBox="0 0 203.000000 249.000000"
 preserveAspectRatio="xMidYMid meet">

<g transform="translate(0.000000,249.000000) scale(0.100000,-0.100000)" stroke="none">
<path d="M825 2481 c-68 -17 -126 -64 -159 -128 -12 -25 -16 -62 -16 -163 l0
-131 36 -15 c41 -17 95 -10 118 15 10 11 17 50 22 124 6 89 10 110 25 117 10
6 87 10 173 10 190 0 186 3 186 -137 0 -123 16 -141 115 -134 57 5 65 22 65
145 0 90 -4 120 -21 156 -26 58 -63 96 -121 126 -45 23 -56 24 -220 23 -95 -1
-186 -4 -203 -8z"/>
<path d="M440 2375 c-173 -48 -282 -106 -358 -189 -67 -73 -76 -102 -76 -241
0 -133 9 -165 67 -238 l33 -42 67 -660 c37 -363 72 -677 77 -696 34 -124 181
-220 424 -277 102 -24 130 -26 331 -26 236 -1 311 8 450 51 164 52 274 129
313 221 22 50 34 153 116 964 43 420 44 427 70 459 62 73 71 103 71 244 0 126
-1 132 -30 184 -16 29 -47 68 -69 87 -78 67 -281 155 -410 178 -37 7 -38 6
-32 -16 7 -24 11 -46 21 -110 4 -23 11 -38 20 -38 26 0 186 -59 229 -84 63
-37 116 -99 116 -137 0 -110 -179 -208 -472 -261 -107 -20 -158 -23 -383 -22
-201 0 -283 4 -360 17 -294 51 -495 155 -495 256 0 79 113 162 295 217 33 10
61 19 63 20 1 1 7 26 11 55 5 30 12 66 16 82 9 33 7 33 -105 2z m44 -895 c20
-18 36 -43 40 -63 16 -87 106 -954 106 -1018 0 -53 -22 -79 -65 -79 -43 0 -82
33 -94 78 -5 20 -26 186 -45 367 -73 683 -76 711 -54 733 22 22 75 14 112 -18z
m1186 15 c11 -13 9 -58 -9 -243 -41 -427 -90 -852 -101 -871 -31 -59 -116 -81
-145 -38 -13 21 -13 44 5 228 39 398 92 853 102 874 28 57 117 87 148 50z
m-586 -97 c14 -20 16 -91 16 -569 l0 -548 -26 -20 c-50 -40 -125 -17 -139 42
-3 12 -5 262 -3 555 3 606 -4 562 89 562 38 0 51 -5 63 -22z"/>
</g>
</svg>
